M48
METRIC,LZ,000.000
;FILE_FORMAT=3:3
;TYPE=PLATED
;Layer: PTH_Through
;EasyEDA v6.5.9, 2022-07-24 10:15:09
;fe253c73351744798c961b15868a372a,02f1792b0bbe455e88b475f65b551f11,10
;Gerber Generator version 0.2
;Holesize 1 = 0.306 mm
T01C0.306
;Holesize 2 = 0.501 mm
T02C0.501
;Holesize 3 = 0.813 mm
T03C0.813
;Holesize 4 = 0.889 mm
T04C0.889
;Holesize 5 = 0.901 mm
T05C0.901
;Holesize 6 = 0.915 mm
T06C0.915
;Holesize 7 = 1.000 mm
T07C1.000
;Holesize 8 = 1.101 mm
T08C1.101
;Holesize 9 = 1.200 mm
T09C1.200
;Holesize 10 = 1.301 mm
T10C1.301
;Holesize 11 = 1.600 mm
T11C1.600
;Holesize 12 = 1.800 mm
T12C1.800
%
G05
G90
T01
X031000Y-056000
X059000Y-054600
X037443Y-105286
X032774Y-056127
X116207Y-010383
X113356Y-037851
X160501Y-049915
X120529Y-050320
X085837Y-041862
X079699Y-050690
X114222Y-050690
X082989Y-074500
X076574Y-044745
X070601Y-049180
X081596Y-073279
X031493Y-039343
X093290Y-064685
X075466Y-045019
X037827Y-052955
X035080Y-073102
X033531Y-042303
X021481Y-061144
X032570Y-042889
X031907Y-069670
X104006Y-025982
X073174Y-093154
X102844Y-076694
X134461Y-083364
X034521Y-076270
X069401Y-033754
X141573Y-087231
X136379Y-087231
X133509Y-042470
X131783Y-039921
X104898Y-017060
X099700Y-056500
X082400Y-056500
X079542Y-096631
X036217Y-099805
X046689Y-041695
X049305Y-074500
X125511Y-024944
X105622Y-022596
X105406Y-028273
X080784Y-027595
X074083Y-025092
X127526Y-018221
X103793Y-019318
X100987Y-018440
X072942Y-013396
X135014Y-025765
X144340Y-067002
X141587Y-067352
X129262Y-038471
X114196Y-038221
X111514Y-037994
X034819Y-082097
X049501Y-070198
X072396Y-006014
X099777Y-004623
X134486Y-037228
X058261Y-029452
X108367Y-035907
X109821Y-036307
X109849Y-028700
X108812Y-033903
X105429Y-033903
X103751Y-031764
X058406Y-028628
T02
X087709Y-007842
X118748Y-041305
T03
X021744Y-004483
X024284Y-004483
X159130Y-074500
X161670Y-074500
X117370Y-074500
X119910Y-074500
X106930Y-074500
X109470Y-074500
X096490Y-074500
X099030Y-074500
X086050Y-074500
X088590Y-074500
X075610Y-074500
X078150Y-074500
X065170Y-074500
X067710Y-074500
X054730Y-074500
X057270Y-074500
X044290Y-074500
X046830Y-074500
X033850Y-074500
X036390Y-074500
X023410Y-074500
X025950Y-074500
X012970Y-074500
X015510Y-074500
X002530Y-074500
X005070Y-074500
X127810Y-074500
X130350Y-074500
X148690Y-074500
X151230Y-074500
X138250Y-074500
X140790Y-074500
X033041Y-004610
X035581Y-004610
X064610Y-102090
X062070Y-102090
X059530Y-102090
X056990Y-102090
X054450Y-102090
X051910Y-102090
X049370Y-102090
X046830Y-102090
X044290Y-102090
X041750Y-102090
X039210Y-102090
X036670Y-102090
X034130Y-102090
X031590Y-102090
X031590Y-109710
X034130Y-109710
X036670Y-109710
X039210Y-109710
X041750Y-109710
X044290Y-109710
X046830Y-109710
X049370Y-109710
X051910Y-109710
X054450Y-109710
X056990Y-109710
X059530Y-109710
X062070Y-109710
X064610Y-109710
X102810Y-040510
X102810Y-037970
X102810Y-035430
X102810Y-032890
X102810Y-030350
X102810Y-027810
X102810Y-025270
X102810Y-022730
X102810Y-020190
X102810Y-017650
X102810Y-015110
X102810Y-012570
X102810Y-010030
X102810Y-007490
X095190Y-007490
X095190Y-010030
X095190Y-012570
X095190Y-015110
X095190Y-017650
X095190Y-020190
X095190Y-022730
X095190Y-025270
X095190Y-027810
X095190Y-030350
X095190Y-032890
X095190Y-035430
X095190Y-037970
X095190Y-040510
T04
X143366Y-004570
X143366Y-027430
X140826Y-004570
X140826Y-027430
X138286Y-004570
X138286Y-027430
X135746Y-004570
X135746Y-027430
X133206Y-004570
X130666Y-004570
X128126Y-004570
X125586Y-004570
X125586Y-027430
X128126Y-027430
X130666Y-027430
X133206Y-027430
X143366Y-029970
X140826Y-029970
X138286Y-029970
X135746Y-029970
X133206Y-029970
X130666Y-029970
X128126Y-029970
X125586Y-029970
X143366Y-002030
X140826Y-002030
X138286Y-002030
X135746Y-002030
X133206Y-002030
X130666Y-002030
X128126Y-002030
X125586Y-002030
X123046Y-029970
X123046Y-027430
X123046Y-002030
X123046Y-004570
X120506Y-029970
X120506Y-027430
X120506Y-002030
X120506Y-004570
T05
X048414Y-004483
X045874Y-004483
X043334Y-004483
X085100Y-007140
X085100Y-004600
X085100Y-002060
X008577Y-035361
X111708Y-069374
T06
X157000Y-033459
X157000Y-038539
X074460Y-004000
X079540Y-004000
X086260Y-025600
X091340Y-025600
X119600Y-014500
X119600Y-017040
X119600Y-019580
X119600Y-022120
T07
X110397Y-002197
X107897Y-002197
X105397Y-002197
X102897Y-002197
X100397Y-002197
X097897Y-002197
X037004Y-040673
X028304Y-040673
X037016Y-036995
X028316Y-036995
X157888Y-049171G85X157888Y-049176
X157888Y-045420G85X157888Y-045425
X152300Y-049171G85X152300Y-049176
X152300Y-045420G85X152300Y-045425
X146712Y-049171G85X146712Y-049176
X146712Y-045420G85X146712Y-045425
X141124Y-049171G85X141124Y-049176
X141124Y-045420G85X141124Y-045425
X075063Y-023600G85X075058Y-023600
X077598Y-023600G85X077603Y-023600
X080138Y-023600G85X080143Y-023600
X118901Y-102230G85X118906Y-102230
X122658Y-102230G85X122653Y-102230
X118906Y-107730G85X118901Y-107730
X122658Y-107730G85X122653Y-107730
X063120Y-004540
X060580Y-004540
X058040Y-004540
X055500Y-004540
X052960Y-004540
X050420Y-004540
X050420Y-024860
X052960Y-024860
X055500Y-024860
X058040Y-024860
X060580Y-024860
X063120Y-024860
X122550Y-008550
X132850Y-008550
X135150Y-008550
X145450Y-008550
X146863Y-110110G85X146858Y-110110
X144323Y-110110G85X144318Y-110110
X141783Y-110110G85X141778Y-110110
X139243Y-110110G85X139238Y-110110
X136703Y-110110G85X136698Y-110110
X134163Y-110110G85X134158Y-110110
X131623Y-110110G85X131618Y-110110
X129083Y-110110G85X129078Y-110110
X126543Y-110110G85X126538Y-110110
X126543Y-102490G85X126538Y-102490
X129083Y-102490G85X129078Y-102490
X131623Y-102490G85X131618Y-102490
X134163Y-102490G85X134158Y-102490
X136703Y-102490G85X136698Y-102490
X139243Y-102490G85X139238Y-102490
X141783Y-102490G85X141778Y-102490
X144323Y-102490G85X144318Y-102490
X146863Y-102490G85X146858Y-102490
X090563Y-039810G85X090558Y-039810
X088023Y-039810G85X088018Y-039810
X085483Y-039810G85X085478Y-039810
X082943Y-039810G85X082938Y-039810
X080403Y-039810G85X080398Y-039810
X077863Y-039810G85X077858Y-039810
X075323Y-039810G85X075318Y-039810
X072783Y-039810G85X072778Y-039810
X070243Y-039810G85X070238Y-039810
X070243Y-032190G85X070238Y-032190
X072783Y-032190G85X072778Y-032190
X075323Y-032190G85X075318Y-032190
X077863Y-032190G85X077858Y-032190
X080403Y-032190G85X080398Y-032190
X082943Y-032190G85X082938Y-032190
X085483Y-032190G85X085478Y-032190
X088023Y-032190G85X088018Y-032190
X090563Y-032190G85X090558Y-032190
X141508Y-041186G85X141503Y-041186
X138968Y-041186G85X138963Y-041186
X136428Y-041186G85X136423Y-041186
X133888Y-041186G85X133883Y-041186
X131348Y-041186G85X131343Y-041186
X128808Y-041186G85X128803Y-041186
X126268Y-041186G85X126263Y-041186
X123728Y-041186G85X123723Y-041186
X121188Y-041186G85X121183Y-041186
X121188Y-033566G85X121183Y-033566
X123728Y-033566G85X123723Y-033566
X126268Y-033566G85X126263Y-033566
X128808Y-033566G85X128803Y-033566
X131348Y-033566G85X131343Y-033566
X133888Y-033566G85X133883Y-033566
X136428Y-033566G85X136423Y-033566
X138968Y-033566G85X138963Y-033566
X141508Y-033566G85X141503Y-033566
X106850Y-005000
X117150Y-005000
X117191Y-007531
X106891Y-007531
X015154Y-013323
X015154Y-003023
X162450Y-098600
X152150Y-098600
X114650Y-098600
X124950Y-098600
X102150Y-098600
X112450Y-098600
X099950Y-098600
X089650Y-098600
X087450Y-098600
X077150Y-098600
X078350Y-101900
X068050Y-101900
X074950Y-098600
X064650Y-098600
X062450Y-098600
X052150Y-098600
X039650Y-098600
X049950Y-098600
X027150Y-098600
X037450Y-098600
X024950Y-098600
X014650Y-098600
X013550Y-101300
X003250Y-101300
X002150Y-098600
X012450Y-098600
X151100Y-110650
X151100Y-100350
X139650Y-098600
X149950Y-098600
X127150Y-098600
X137450Y-098600
X039250Y-009900
X049550Y-009900
X046350Y-001400
X056650Y-001400
X089300Y-011450
X089300Y-001150
X091900Y-011450
X091900Y-001150
X035530Y-002451
X025230Y-002451
X108000Y-009850
X108000Y-020150
X108000Y-032150
X108000Y-021850
X092650Y-013700
X082350Y-013700
X073150Y-011500
X083450Y-011500
X078285Y-055791G85X078280Y-055791
T08
X116810Y-040000
X114270Y-040000
X111730Y-040000
X109190Y-040000
T09
X108808Y-045123
X108808Y-060363
X108808Y-065443
X108808Y-070523
X101308Y-070523
X101308Y-065443
X101308Y-060363
X101308Y-045123
X095300Y-045123
X095300Y-060363
X095300Y-065443
X095300Y-070523
X087800Y-070523
X087800Y-065443
X087800Y-060363
X087800Y-045123
X078424Y-045123
X078424Y-060363
X078424Y-065443
X078424Y-070523
X070924Y-070523
X070924Y-065443
X070924Y-060363
X070924Y-045123
X064916Y-045123
X064916Y-060363
X064916Y-065443
X064916Y-070523
X057416Y-070523
X057416Y-065443
X057416Y-060363
X057416Y-045123
X051409Y-045123
X051409Y-060363
X051409Y-065443
X051409Y-070523
X043909Y-070523
X043909Y-065443
X043909Y-060363
X043909Y-045123
X037898Y-045123
X037898Y-060363
X037898Y-065443
X037898Y-070523
X030398Y-070523
X030398Y-065443
X030398Y-060363
X030398Y-045123
X024391Y-045123
X024391Y-060363
X024391Y-065443
X024391Y-070523
X016891Y-070523
X016891Y-065443
X016891Y-060363
X016891Y-045123
X010883Y-045123
X010883Y-060363
X010883Y-065443
X010883Y-070523
X003383Y-070523
X003383Y-065443
X003383Y-060363
X003383Y-045123
X135917Y-045123
X135917Y-060363
X135917Y-065443
X135917Y-070523
X128417Y-070523
X128417Y-065443
X128417Y-060363
X128417Y-045123
X122201Y-045123
X122201Y-060363
X122201Y-065443
X122201Y-070523
X114701Y-070523
X114701Y-065443
X114701Y-060363
X114701Y-045123
X038000Y-007531
X038000Y-022771
X038000Y-027851
X038000Y-032931
X030500Y-032931
X030500Y-027851
X030500Y-022771
X030500Y-007531
X010683Y-012935
X010683Y-028175
X010683Y-033255
X010683Y-038335
X003183Y-038335
X003183Y-033255
X003183Y-028175
X003183Y-012935
X020473Y-014472
X020473Y-019172
X020473Y-023872
X025223Y-019172
X025223Y-023872
X025223Y-014472
X043312Y-014472
X043312Y-019172
X043312Y-023872
X048062Y-019172
X048062Y-023872
X048062Y-014472
X159910Y-013040
X159910Y-018120
X159910Y-023200
T10
X159900Y-013098
X159900Y-018102
X158602Y-080800
X153598Y-080800
X148602Y-080800
X143598Y-080800
X106102Y-080800
X101098Y-080800
X096102Y-080800
X091098Y-080800
X078157Y-080800
X073153Y-080800
X068157Y-080800
X063153Y-080800
X058157Y-080800
X053153Y-080800
X038157Y-080800
X033153Y-080800
X028157Y-080800
X023153Y-080800
X018157Y-080800
X013153Y-080800
X138602Y-080800
X133598Y-080800
X128602Y-080800
X123598Y-080800
X048157Y-080800
X043153Y-080800
X008157Y-080800
X003153Y-080800
X023502Y-009000
X018498Y-009000
X157888Y-070424G85X157888Y-070424
X157888Y-065425G85X157888Y-065422
X157888Y-060426G85X157888Y-060421
X152300Y-070424G85X152300Y-070424
X152300Y-065425G85X152300Y-065422
X152300Y-060426G85X152300Y-060421
X146712Y-070424G85X146712Y-070424
X146712Y-065425G85X146712Y-065422
X146712Y-060426G85X146712Y-060421
X141124Y-070424G85X141124Y-070424
X141124Y-065425G85X141124Y-065422
X141124Y-060426G85X141124Y-060421
X089900Y-108002
X089900Y-102998
X097657Y-102230G85X097652Y-102230
X102655Y-102230G85X102653Y-102230
X107657Y-102230G85X107652Y-102230
X097657Y-107730G85X097651Y-107730
X102655Y-107730G85X102653Y-107730
X107657Y-107730G85X107651Y-107730
T11
X068100Y-014422
X068100Y-019122
X068100Y-023822
X160311Y-085700
X160311Y-090400
X160311Y-095100
X149870Y-085700
X149870Y-090400
X149870Y-095100
X139429Y-085700
X139429Y-090400
X139429Y-095100
X128988Y-085700
X128988Y-090400
X128988Y-095100
X118547Y-085700
X118547Y-090400
X118547Y-095100
X108105Y-085700
X108105Y-090400
X108105Y-095100
X097664Y-085700
X097664Y-090400
X097664Y-095100
X087223Y-085700
X087223Y-090400
X087223Y-095100
X076782Y-085700
X076782Y-090400
X076782Y-095100
X066341Y-085700
X066341Y-090400
X066341Y-095100
X055900Y-085700
X055900Y-090400
X055900Y-095100
X045459Y-085700
X045459Y-090400
X045459Y-095100
X035018Y-085700
X035018Y-090400
X035018Y-095100
X024577Y-085700
X024577Y-090400
X024577Y-095100
X014135Y-085700
X014135Y-090400
X014135Y-095100
X003694Y-085700
X003694Y-090400
X003694Y-095100
X113100Y-014422
X113100Y-019122
X113100Y-023822
X080300Y-019022
X085000Y-019022
X089700Y-019022
T12
X044205Y-037000
X065795Y-037000
M30
