G04 Layer: TopLayer*
G04 EasyEDA v6.5.9, 2022-07-24 10:15:09*
G04 fe253c73351744798c961b15868a372a,02f1792b0bbe455e88b475f65b551f11,10*
G04 Gerber Generator version 0.2*
G04 Scale: 100 percent, Rotated: No, Reflected: No *
G04 Dimensions in millimeters *
G04 leading zeros omitted , absolute positions ,4 integer and 5 decimal *
%FSLAX45Y45*%
%MOMM*%

%ADD10C,0.6000*%
%ADD11C,0.2540*%
%ADD12C,1.4000*%
%ADD13C,2.0000*%
%ADD14C,1.5000*%
%ADD15C,1.5240*%
%ADD16C,2.0320*%
%ADD17C,1.8000*%
%ADD18C,2.3000*%
%ADD19C,2.4000*%
%ADD20C,1.7000*%
%ADD21C,2.5000*%
%ADD22C,1.6000*%
%ADD23R,1.6000X1.6000*%
%ADD24C,1.8796*%
%ADD25C,1.6764*%
%ADD26C,0.6100*%
%ADD27C,1.5000*%
%ADD28C,0.7000*%
%ADD29C,3.8000*%
%ADD30C,0.0111*%

%LPD*%
D10*
X12118593Y-4118610D02*
G01*
X11999975Y-3999992D01*
X11811228Y-3999992D01*
X7842427Y-4512335D02*
G01*
X7677048Y-4346955D01*
X6657035Y-4346955D01*
X6491655Y-4512335D01*
X10281005Y-1764995D02*
G01*
X10297922Y-1781911D01*
X10970285Y-1781911D01*
X11310010Y-1442186D01*
X2439085Y-4512335D02*
G01*
X2604465Y-4346955D01*
X3207867Y-4346955D01*
X3373247Y-4512335D01*
X3789857Y-4512335D01*
X8030006Y-1902205D02*
G01*
X7569987Y-1442186D01*
X6810019Y-1442186D01*
X15230017Y-6042329D02*
G01*
X15788817Y-6042329D01*
X14671217Y-6042329D02*
G01*
X15230017Y-6042329D01*
X14671217Y-4542332D02*
G01*
X15230017Y-4542332D01*
X14112417Y-4542332D02*
G01*
X14671217Y-4542332D01*
X13591717Y-4512335D02*
G01*
X13621715Y-4542332D01*
X14112417Y-4542332D01*
X5140883Y-4512335D02*
G01*
X5306263Y-4346955D01*
X6326276Y-4346955D01*
X6491655Y-4512335D01*
X3789857Y-4512335D02*
G01*
X3955237Y-4346955D01*
X4975504Y-4346955D01*
X5140883Y-4512335D01*
X338302Y-6036335D02*
G01*
X512927Y-6210960D01*
X1514449Y-6210960D01*
X1689074Y-6036335D01*
X14869007Y-7449997D02*
G01*
X14720646Y-7301636D01*
X13973352Y-7301636D01*
X13824991Y-7449997D01*
X3800017Y-753135D02*
G01*
X3341192Y-753135D01*
X2833192Y-245135D01*
X2523007Y-245135D01*
X14545030Y-854989D02*
G01*
X14283385Y-593344D01*
X12948945Y-593344D01*
X12812598Y-456996D01*
X6312001Y-2485999D02*
G01*
X6058001Y-2485999D01*
X11681002Y-3999992D02*
G01*
X11811228Y-3999992D01*
X1515414Y-1332356D02*
G01*
X1107160Y-1332356D01*
X1068298Y-1293495D01*
X7714995Y-9860000D02*
G01*
X7580299Y-9725304D01*
X6599681Y-9725304D01*
X6464985Y-9860000D01*
X6464985Y-9860000D02*
G01*
X6341846Y-9736861D01*
X5338140Y-9736861D01*
X5215000Y-9860000D01*
X4995011Y-9860000D02*
G01*
X5215000Y-9860000D01*
X4174997Y-10208996D02*
G01*
X4523993Y-9860000D01*
X4995011Y-9860000D01*
X324993Y-10130002D02*
G01*
X594995Y-9860000D01*
X1245006Y-9860000D01*
X1245006Y-9860000D02*
G01*
X1464995Y-9860000D01*
X8510015Y-459994D02*
G01*
X8014004Y-459994D01*
X7954009Y-399999D01*
X9519005Y-1256995D02*
G01*
X10027005Y-1764995D01*
X10281005Y-1764995D01*
X9519005Y-1256995D02*
G01*
X9406000Y-1369999D01*
X9265005Y-1369999D01*
X3412997Y-10970996D02*
G01*
X3158997Y-10970996D01*
X3666997Y-10970996D02*
G01*
X3412997Y-10970996D01*
D11*
X5444997Y-10970996D02*
G01*
X5327573Y-11088420D01*
X4637328Y-11088420D01*
X4555997Y-11007089D01*
X4555997Y-10928045D01*
X4156506Y-10528554D01*
X3744340Y-10528554D01*
X3099993Y-5599988D02*
G01*
X3112719Y-5612714D01*
X3277387Y-5612714D01*
X5900013Y-5460009D02*
G01*
X3239968Y-5460009D01*
X3099991Y-5599986D01*
X8970009Y-1902205D02*
G01*
X8970390Y-1902587D01*
X10164597Y-1902587D01*
X10281005Y-2018995D01*
X10281005Y-2018995D02*
G01*
X10503585Y-2241575D01*
X10503585Y-2283866D01*
X10601909Y-2382189D01*
X11310010Y-2382189D01*
X7314996Y-1150010D02*
G01*
X6754012Y-1150010D01*
X6058001Y-453999D01*
X10800003Y-984986D02*
G01*
X10853318Y-1038301D01*
X11620703Y-1038301D01*
X7314996Y-1150010D02*
G01*
X7617713Y-847293D01*
X9420707Y-847293D01*
X9519005Y-748995D01*
X4806162Y-2320823D02*
G01*
X4402531Y-1917192D01*
X4331157Y-1917192D01*
X4806162Y-2387193D02*
G01*
X4806162Y-2320823D01*
X4806162Y-2320823D02*
G01*
X6748652Y-2320823D01*
X6810019Y-2382189D01*
X10689107Y-753135D02*
G01*
X10566247Y-875995D01*
X9646005Y-875995D01*
X9519005Y-748995D01*
X13828598Y-2742996D02*
G01*
X13955598Y-2869996D01*
X13955598Y-3018485D01*
X14173479Y-3236366D01*
X14231747Y-3236366D01*
X14281378Y-3285997D01*
X14281378Y-3434308D01*
X13930579Y-3785107D01*
X11465433Y-3785107D01*
X11443893Y-3763568D01*
X11357102Y-3763568D01*
X11335562Y-3785107D01*
D12*
X1068298Y-3325495D02*
G01*
X857732Y-3536061D01*
X857707Y-3536061D01*
D11*
X16050082Y-4991455D02*
G01*
X15862934Y-4991455D01*
X15788817Y-4917338D01*
X14150593Y-4118610D02*
G01*
X14990089Y-4118610D01*
X15788817Y-4917338D01*
X12052934Y-5032019D02*
G01*
X12052934Y-4663262D01*
X12052934Y-4663262D02*
G01*
X12918008Y-4663262D01*
X13134593Y-4446676D01*
X13134593Y-4118610D01*
X10130764Y-4512335D02*
G01*
X10281691Y-4663262D01*
X12052934Y-4663262D01*
X8583701Y-4186199D02*
G01*
X10539349Y-4186199D01*
X10844834Y-3880713D01*
X12388697Y-3880713D01*
X12626593Y-4118610D01*
X7969910Y-5069027D02*
G01*
X11422176Y-5069027D01*
X8605037Y-7449997D02*
G01*
X8298891Y-7449997D01*
X7657439Y-4474540D02*
G01*
X7619517Y-4436618D01*
X7523657Y-4436618D01*
X7060133Y-4900142D01*
X7060133Y-4918049D01*
X7561021Y-7449997D02*
G01*
X7683093Y-7327925D01*
X8159572Y-7327925D01*
X7060133Y-4918049D02*
G01*
X4796586Y-4918049D01*
X4390872Y-4512335D01*
X3149269Y-3934307D02*
G01*
X3755237Y-3934307D01*
X3799560Y-3978630D01*
X4713859Y-3978630D01*
X5270525Y-3421964D01*
X6903847Y-3421964D01*
X6915861Y-3433978D01*
X8255000Y-3433978D01*
X8802014Y-3980992D01*
X9329013Y-6468465D02*
G01*
X9190329Y-6607149D01*
X9190329Y-6856526D01*
X8816822Y-7230033D01*
X6736994Y-7230033D01*
X6517030Y-7449997D01*
X3782695Y-5295544D02*
G01*
X6765493Y-5295544D01*
X7546644Y-4514392D01*
X7546644Y-4501921D01*
X338302Y-4512335D02*
G01*
X1121511Y-5295544D01*
X3782695Y-5295544D01*
X8040014Y-3980992D02*
G01*
X8303793Y-4244771D01*
X12574143Y-4244771D01*
X12841706Y-4512335D01*
X8040014Y-3980992D02*
G01*
X7922895Y-3863873D01*
X6982333Y-3863873D01*
X6615938Y-4230268D01*
X3353104Y-4230268D01*
X3508044Y-7310170D02*
G01*
X3385007Y-7433208D01*
X3385007Y-7449997D01*
X8158378Y-4353356D02*
G01*
X11311127Y-4353356D01*
X11470106Y-4512335D01*
X7786014Y-3980992D02*
G01*
X8158378Y-4353356D01*
X7532014Y-3980992D02*
G01*
X7224140Y-4288866D01*
X3257041Y-4288866D01*
X1297000Y-7449997D02*
G01*
X1423365Y-7576362D01*
X2730525Y-7576362D01*
X3190747Y-7116140D01*
X3190747Y-6967016D01*
X14042669Y-3356610D02*
G01*
X14042669Y-3329635D01*
X13823340Y-3110306D01*
X10964087Y-3110306D01*
X10451998Y-2598216D01*
X10400588Y-2598216D01*
X14150593Y-3356610D02*
G01*
X14042669Y-3356610D01*
X8722334Y-9040012D02*
G01*
X8446973Y-9315373D01*
X7317384Y-9315373D01*
X10947018Y-7449997D02*
G01*
X10727664Y-7669352D01*
X10284409Y-7669352D01*
D10*
X12558598Y-456996D02*
G01*
X12394006Y-621588D01*
X10352735Y-621588D01*
X10339959Y-608812D01*
X8946286Y-608812D01*
X8770874Y-784225D01*
X2174417Y-448335D02*
G01*
X3403269Y-1677187D01*
X7331202Y-1677187D01*
X8014004Y-2359990D01*
D11*
X15123007Y-7449997D02*
G01*
X14706066Y-7866938D01*
X14377720Y-7866938D01*
X13908227Y-8336432D01*
X13446099Y-8336432D01*
X3639007Y-7449997D02*
G01*
X3462020Y-7626985D01*
X3452088Y-7626985D01*
X6940118Y-3375405D02*
G01*
X5092115Y-3375405D01*
X4178071Y-2461361D01*
X4178071Y-2432837D01*
X3509365Y-1764131D01*
X788923Y-1764131D01*
X318287Y-1293495D01*
X13637945Y-8723096D02*
G01*
X14157274Y-8723096D01*
X13178256Y-3992067D02*
G01*
X13242696Y-4056506D01*
X13242696Y-4138853D01*
X13350875Y-4247032D01*
X3621709Y-9980549D02*
G01*
X4168800Y-9980549D01*
X4486224Y-9663125D01*
X7954238Y-9663125D01*
X10489793Y-1706041D02*
G01*
X10489793Y-1465783D01*
X10281005Y-1256995D01*
X13896593Y-3356610D02*
G01*
X13708481Y-3168497D01*
X10964621Y-3168497D01*
X10452912Y-2656789D01*
X10376331Y-2656789D01*
X10281005Y-2561462D01*
X10281005Y-2526995D01*
X8548014Y-3980992D02*
G01*
X8390102Y-3823080D01*
X6916242Y-3823080D01*
X6569862Y-4169460D01*
X4668900Y-4169460D01*
X5473014Y-7449997D02*
G01*
X4930470Y-7449997D01*
X4668900Y-4169460D02*
G01*
X4648860Y-4189501D01*
X3430143Y-4189501D01*
X3396564Y-4155922D01*
X3027222Y-4155922D01*
X2903626Y-4279519D01*
X1921890Y-4279519D01*
X1689074Y-4512335D01*
X4806162Y-1917192D02*
G01*
X5083429Y-2194458D01*
X7093559Y-2194458D01*
X7408341Y-2509240D01*
X10540593Y-2827324D02*
G01*
X10485602Y-2827324D01*
X10327360Y-2669082D01*
X9434601Y-2669082D01*
X9363481Y-2740202D01*
X8097748Y-2740202D01*
X8078444Y-2759506D01*
X10562158Y-2259609D02*
G01*
X10603484Y-2300935D01*
X10993932Y-2300935D01*
X11077346Y-2217521D01*
X11470233Y-2217521D01*
X11747118Y-2494406D01*
X12551130Y-2494406D01*
X12812598Y-2742996D02*
G01*
X12707416Y-2637815D01*
X10727969Y-2637815D01*
X10496270Y-2406116D01*
X8227136Y-2406116D01*
X7991779Y-2641472D01*
X5451475Y-2641472D01*
X5296001Y-2485999D01*
X10379329Y-1931847D02*
G01*
X10452023Y-1859153D01*
X11142522Y-1859153D01*
X11250472Y-1751203D01*
X11392204Y-1751203D01*
X11463096Y-1822094D01*
X12752628Y-1822094D01*
X7294219Y-1339595D02*
G01*
X7837601Y-1339595D01*
X8136000Y-1637995D01*
X9775494Y-1637995D01*
X9981514Y-1844014D01*
X10098735Y-1844014D01*
X13320598Y-2742996D02*
G01*
X13431570Y-2853969D01*
X13612291Y-2853969D01*
X13678890Y-2787370D01*
X13678890Y-2664663D01*
X12144222Y-1129995D01*
X9390634Y-1129995D01*
X9298965Y-1038326D01*
X8047761Y-1038326D01*
X7831785Y-1254302D01*
X5842304Y-1254302D01*
X5042001Y-453999D01*
D10*
X11874754Y-4130497D02*
G01*
X11049508Y-4130497D01*
X10919002Y-3999992D01*
X3700424Y-4067327D02*
G01*
X6212154Y-4067327D01*
X6579488Y-3699992D01*
D11*
X13515009Y-854989D02*
G01*
X13285012Y-854989D01*
X8500008Y-1902205D02*
G01*
X8758834Y-2161031D01*
X10344327Y-2161031D01*
X10462818Y-2279522D01*
X10462818Y-2300757D01*
X10738535Y-2576474D01*
X13501370Y-2576474D01*
X10800003Y-2015007D02*
G01*
X11207191Y-2015007D01*
X11310010Y-1912188D01*
D12*
X10610189Y-8079994D02*
G01*
X10610189Y-7893177D01*
X11170793Y-6937400D02*
G01*
X11170793Y-7496047D01*
X10773663Y-7893177D01*
X10610189Y-7893177D01*
X10130764Y-6544335D02*
G01*
X9913340Y-6761759D01*
X9913340Y-7136460D01*
X10109809Y-7332929D01*
X10109809Y-8079994D01*
X9610191Y-8079994D02*
G01*
X9610191Y-7893177D01*
X9530003Y-6544335D02*
G01*
X9311386Y-6762953D01*
X9311386Y-7594371D01*
X9610191Y-7893177D01*
D13*
X2522347Y-1917192D02*
G01*
X2047341Y-1917192D01*
D12*
X13484783Y-6143269D02*
G01*
X13797102Y-6455613D01*
X13797102Y-6520179D01*
X14042847Y-6765925D01*
X14042847Y-6783196D01*
X14112417Y-6852767D01*
X14112417Y-7042327D01*
X1068298Y-2899333D02*
G01*
X1053896Y-2899333D01*
X318287Y-3634943D01*
X318287Y-3833495D01*
X2439085Y-6036335D02*
G01*
X2652699Y-5822721D01*
X3576243Y-5822721D01*
X3789857Y-6036335D01*
X9530003Y-6036335D02*
G01*
X9324619Y-6241719D01*
X8047812Y-6241719D01*
X7842427Y-6036335D01*
X6491655Y-6036335D02*
G01*
X6697040Y-6241719D01*
X7300340Y-6241719D01*
X14671217Y-7042327D02*
G01*
X15230017Y-7042327D01*
X14112417Y-7042327D02*
G01*
X14671217Y-7042327D01*
X13484783Y-6143269D02*
G01*
X13385342Y-6242710D01*
X12220117Y-6242710D01*
X13591717Y-6036335D02*
G01*
X13484783Y-6143269D01*
X11470106Y-7052335D02*
G01*
X11470106Y-7009866D01*
X11237264Y-6777024D01*
X10406075Y-6777024D01*
X10130764Y-7052335D01*
X9530003Y-6036335D02*
G01*
X9735388Y-6241719D01*
X10675391Y-6241719D01*
X10880775Y-6036335D01*
X7300340Y-6241719D02*
G01*
X7637043Y-6241719D01*
X7842427Y-6036335D01*
X7300340Y-6844411D02*
G01*
X7300340Y-6241719D01*
X7092416Y-7052335D02*
G01*
X7300340Y-6844411D01*
X7300340Y-6844411D02*
G01*
X8572068Y-6844411D01*
X8779992Y-7052335D01*
X872921Y-6337630D02*
G01*
X253542Y-6337630D01*
X132892Y-6458280D01*
X132892Y-6846925D01*
X338302Y-7052335D01*
X2439085Y-6036335D02*
G01*
X2137790Y-6337630D01*
X872921Y-6337630D01*
X872921Y-6337630D02*
G01*
X872921Y-6622948D01*
X1048308Y-6798335D01*
X1435074Y-6798335D01*
X1689074Y-7052335D01*
X4928514Y-6845960D02*
G01*
X5535269Y-6845960D01*
X5741644Y-7052335D01*
X4390872Y-7052335D02*
G01*
X4597247Y-6845960D01*
X4928514Y-6845960D01*
X4928514Y-6248704D02*
G01*
X4928514Y-6845960D01*
X4928514Y-6248704D02*
G01*
X5140883Y-6036335D01*
X3789857Y-6036335D02*
G01*
X4002227Y-6248704D01*
X4928514Y-6248704D01*
X3039846Y-7052335D02*
G01*
X2828010Y-7264171D01*
X1900910Y-7264171D01*
X1689074Y-7052335D01*
X12220117Y-6242710D02*
G01*
X11087150Y-6242710D01*
X10880775Y-6036335D01*
X12220117Y-6036335D02*
G01*
X12220117Y-6242710D01*
X12841706Y-7052335D02*
G01*
X12623418Y-7270622D01*
X11688394Y-7270622D01*
X11470106Y-7052335D01*
X3050006Y-3039135D02*
G01*
X1208100Y-3039135D01*
X1068298Y-2899333D01*
X3800017Y-2277135D02*
G01*
X3800017Y-2336012D01*
X3096895Y-3039135D01*
X3050006Y-3039135D01*
X3050006Y-3039135D02*
G01*
X3050006Y-3293135D01*
X1068298Y-2817495D02*
G01*
X1068298Y-2899333D01*
X2047341Y-2387193D02*
G01*
X1498600Y-2387193D01*
X1068298Y-2817495D01*
X2522347Y-2387193D02*
G01*
X2047341Y-2387193D01*
D11*
X14158722Y-6735216D02*
G01*
X14193697Y-6700240D01*
X14434032Y-6700240D01*
X10281005Y-4050995D02*
G01*
X10519435Y-4050995D01*
X10771047Y-3799382D01*
X11151387Y-3799382D01*
X12304598Y-456996D02*
G01*
X12177750Y-330149D01*
X10400131Y-330149D01*
X10289717Y-219735D01*
X4950104Y-7019848D02*
G01*
X4924348Y-7019848D01*
X4754219Y-7189978D01*
X4747107Y-7189978D01*
X4712792Y-7224293D01*
X4712792Y-7231405D01*
X4556023Y-7388174D01*
X4556023Y-7593304D01*
X3939666Y-8209661D01*
X3481933Y-8209661D01*
X9977704Y-462254D02*
G01*
X8683269Y-462254D01*
X8544153Y-601370D01*
X7239584Y-601370D01*
X11719128Y-753135D02*
G01*
X10836605Y-753135D01*
X10586745Y-1002995D01*
X10281005Y-1002995D01*
X11719128Y-753135D02*
G01*
X11788393Y-683869D01*
X12481458Y-683869D01*
X12708305Y-457022D01*
X12708305Y-393496D01*
X12755930Y-345871D01*
X13463473Y-345871D01*
X13574598Y-456996D01*
D12*
X5815685Y-8079994D02*
G01*
X5815685Y-7893177D01*
X5140883Y-6544335D02*
G01*
X5351906Y-6333312D01*
X5831840Y-6333312D01*
X5959398Y-6460870D01*
X5959398Y-7749463D01*
X5815685Y-7893177D01*
D11*
X13448588Y-3722801D02*
G01*
X10666882Y-3722801D01*
X10479557Y-3910126D01*
X9195282Y-3910126D01*
X8661781Y-3376625D01*
X7026503Y-3376625D01*
X6595084Y-2945206D01*
X5826125Y-2945206D01*
X13828598Y-202996D02*
G01*
X13932890Y-307289D01*
X14127429Y-307289D01*
X14193799Y-240919D01*
X14193799Y-146100D01*
X14092326Y-44627D01*
X10714812Y-44627D01*
X10539704Y-219735D01*
D13*
X3701618Y-3699535D02*
G01*
X3702075Y-3699992D01*
X4420488Y-3699992D01*
D11*
X3304082Y-461035D02*
G01*
X3427425Y-584377D01*
X4605629Y-584377D01*
X4728819Y-461187D01*
X4728819Y-347345D01*
X4780457Y-295706D01*
X8039912Y-295706D01*
X8077200Y-332994D01*
X10259695Y-332994D01*
X10320096Y-393395D01*
X11756745Y-393395D01*
X11926849Y-563498D01*
X12351283Y-563498D01*
X12431598Y-483184D01*
X12431598Y-329996D01*
X12558598Y-202996D01*
D12*
X6815709Y-8079994D02*
G01*
X6815709Y-7893177D01*
X6491655Y-6544335D02*
G01*
X6273393Y-6762597D01*
X6273393Y-7467625D01*
X6698945Y-7893177D01*
X6815709Y-7893177D01*
X338302Y-6544335D02*
G01*
X686358Y-6892391D01*
X686358Y-7451039D01*
X1315313Y-8079994D01*
X12841706Y-6544335D02*
G01*
X12858546Y-6544335D01*
X13377545Y-7063333D01*
X13377545Y-8062264D01*
X13359815Y-8079994D01*
X12860197Y-8079994D02*
G01*
X12860197Y-7893177D01*
X12220117Y-6544335D02*
G01*
X12474117Y-6798335D01*
X12892760Y-6798335D01*
X13222147Y-7127722D01*
X13222147Y-7531227D01*
X12860197Y-7893177D01*
X8989999Y-10800206D02*
G01*
X9176816Y-10800206D01*
X10265409Y-10773003D02*
G01*
X10052354Y-10986058D01*
X9362668Y-10986058D01*
X9176816Y-10800206D01*
D11*
X14432000Y-11011001D02*
G01*
X14314652Y-10893653D01*
X12423393Y-10893653D01*
X12409754Y-10907293D01*
X12024690Y-10907293D01*
X11890400Y-10773003D01*
X7532014Y-3218992D02*
G01*
X8084083Y-2666923D01*
X9379077Y-2666923D01*
X9519005Y-2526995D01*
X9519005Y-2780995D02*
G01*
X8224011Y-2780995D01*
X7786014Y-3218992D01*
X9519005Y-3034995D02*
G01*
X8224011Y-3034995D01*
X8040014Y-3218992D01*
X9519005Y-3288995D02*
G01*
X9335490Y-3105480D01*
X8407527Y-3105480D01*
X8294014Y-3218992D01*
X9519005Y-3796995D02*
G01*
X9380016Y-3796995D01*
X8802014Y-3218992D01*
X10281005Y-3796995D02*
G01*
X10166527Y-3682517D01*
X10166527Y-3495395D01*
X10244556Y-3417366D01*
X10345572Y-3417366D01*
X10405922Y-3477717D01*
X12505486Y-3477717D01*
X12626593Y-3356610D01*
X13134593Y-3356610D02*
G01*
X13024383Y-3246399D01*
X10992942Y-3246399D01*
X10907598Y-3331743D01*
X10323753Y-3331743D01*
X10281005Y-3288995D01*
X13388593Y-3356610D02*
G01*
X13175691Y-3569512D01*
X10857941Y-3569512D01*
X10836732Y-3590721D01*
X13642593Y-3356610D02*
G01*
X13368527Y-3630676D01*
X10982096Y-3630676D01*
X16031133Y-9039987D02*
G01*
X15347619Y-9723501D01*
X14975560Y-9723501D01*
X14577898Y-10121163D01*
X14577898Y-10268635D01*
X14256537Y-10589996D01*
X5063997Y-10589996D01*
X4682997Y-10208996D01*
X14987016Y-9040012D02*
G01*
X13892402Y-10134625D01*
X12590068Y-10134625D01*
X12187986Y-10536707D01*
X5264708Y-10536707D01*
X4936997Y-10208996D01*
X13942898Y-9040012D02*
G01*
X13261949Y-9720961D01*
X12688620Y-9720961D01*
X12605004Y-9804577D01*
X12605004Y-9904425D01*
X12415596Y-10093833D01*
X12205411Y-10093833D01*
X11815825Y-10483418D01*
X5465419Y-10483418D01*
X5190997Y-10208996D01*
X12898805Y-9040012D02*
G01*
X11865432Y-10073386D01*
X11241735Y-10073386D01*
X10882147Y-10432973D01*
X5668975Y-10432973D01*
X5444997Y-10208996D01*
X11854688Y-9040012D02*
G01*
X10841761Y-10052938D01*
X7605598Y-10052938D01*
X7277531Y-10381005D01*
X5871006Y-10381005D01*
X5698997Y-10208996D01*
X5952997Y-10208996D02*
G01*
X6149847Y-10012146D01*
X9480880Y-10012146D01*
X10453014Y-9040012D01*
X10810570Y-9040012D01*
X6206997Y-10208996D02*
G01*
X6094653Y-10321340D01*
X5898108Y-10321340D01*
X5831992Y-10255224D01*
X5831992Y-10165994D01*
X6026632Y-9971354D01*
X8007502Y-9971354D01*
X8938844Y-9040012D01*
X9766452Y-9040012D01*
X1413560Y-9040012D02*
G01*
X2412669Y-10039121D01*
X3915054Y-10039121D01*
X4047997Y-10172064D01*
X4047997Y-10247045D01*
X4159758Y-10358805D01*
X4324807Y-10358805D01*
X4936997Y-10970996D01*
X4682997Y-10970996D02*
G01*
X4179366Y-10467365D01*
X2395220Y-10467365D01*
X1624914Y-9697059D01*
X1026490Y-9697059D01*
X369443Y-9040012D01*
X2428417Y-448335D02*
G01*
X2282418Y-302336D01*
X1515414Y-302336D01*
X8930004Y-114985D02*
G01*
X8601024Y-114985D01*
X8510015Y-205994D01*
X12880593Y-3356610D02*
G01*
X12708458Y-3528745D01*
X10295254Y-3528745D01*
X10281005Y-3542995D01*
D12*
X3815689Y-8079994D02*
G01*
X3815689Y-7893177D01*
X3789857Y-6544335D02*
G01*
X4002506Y-6756984D01*
X4002506Y-7706360D01*
X3815689Y-7893177D01*
X13860195Y-8079994D02*
G01*
X13860195Y-7893177D01*
X13591717Y-6544335D02*
G01*
X13797711Y-6750329D01*
X13797711Y-7146823D01*
X13640892Y-7303643D01*
X13640892Y-7673873D01*
X13860195Y-7893177D01*
X15230017Y-6542328D02*
G01*
X15465653Y-6542328D01*
X15715640Y-6792315D01*
X15852444Y-6792315D01*
X15989274Y-6929145D01*
X15989274Y-7142530D01*
X15889071Y-7242733D01*
X15856432Y-7242733D01*
X15359811Y-7739354D01*
X15359811Y-8079994D01*
D11*
X10789716Y-219735D02*
G01*
X10921771Y-87680D01*
X13967282Y-87680D01*
X14082598Y-202996D01*
X5840602Y-2862834D02*
G01*
X6832447Y-2862834D01*
X7151014Y-3181400D01*
X7151014Y-3254273D01*
X7227011Y-3330270D01*
X7836433Y-3330270D01*
X7913014Y-3253689D01*
X7913014Y-3185032D01*
X8175116Y-2922930D01*
X9985806Y-2922930D01*
X10239247Y-3176371D01*
X10375061Y-3176371D01*
X13066598Y-2742996D02*
G01*
X12939598Y-2869996D01*
X10984941Y-2869996D01*
X10542879Y-3390315D02*
G01*
X10881233Y-3390315D01*
D12*
X14860193Y-8079994D02*
G01*
X14860193Y-7893177D01*
X14671217Y-6542328D02*
G01*
X14921229Y-6792340D01*
X15270606Y-6792340D01*
X15434919Y-6956653D01*
X15434919Y-7411846D01*
X14953589Y-7893177D01*
X14860193Y-7893177D01*
D11*
X11419611Y-3822141D02*
G01*
X11423370Y-3825900D01*
X12905003Y-3825900D01*
X12926237Y-3847134D01*
X2148077Y-6114287D02*
G01*
X2892552Y-5370068D01*
X7208774Y-5370068D01*
X8158479Y-4420362D01*
X8158479Y-4353305D01*
D12*
X3789934Y-6036310D02*
G01*
X4216145Y-5610097D01*
X6065265Y-5610097D01*
X6491731Y-6036310D01*
D14*
X4390897Y-6036310D02*
G01*
X4627118Y-5800089D01*
X5505195Y-5800089D01*
X5741670Y-6036310D01*
D13*
X3789934Y-7052310D02*
G01*
X3537458Y-6800087D01*
X2691384Y-6800087D01*
X2439161Y-7052310D01*
D11*
X8240019Y-5649998D02*
G01*
X9970008Y-5649998D01*
X9970008Y-5650001D01*
D13*
X8780018Y-6036310D02*
G01*
X9036304Y-5780023D01*
X9659874Y-5780023D01*
X9916413Y-6036310D01*
X10130790Y-6036310D01*
X8779992Y-6036335D02*
G01*
X8285403Y-6036335D01*
X7828203Y-5579135D01*
X11470131Y-6036310D02*
G01*
X11736324Y-5770118D01*
X12575286Y-5770118D01*
X12841731Y-6036310D01*
X14112417Y-6042329D02*
G01*
X14671217Y-6042329D01*
X14987016Y-8570010D02*
G01*
X16031108Y-8570010D01*
X16031133Y-8569985D01*
X13942898Y-8570010D02*
G01*
X14987016Y-8570010D01*
X12898805Y-8570010D02*
G01*
X13942898Y-8570010D01*
X11854688Y-8570010D02*
G01*
X12898805Y-8570010D01*
X10810570Y-8570010D02*
G01*
X11854688Y-8570010D01*
X9766452Y-8570010D02*
G01*
X10810570Y-8570010D01*
X8722334Y-8570010D02*
G01*
X9766452Y-8570010D01*
X7678242Y-8570010D02*
G01*
X8722334Y-8570010D01*
X6634124Y-8570010D02*
G01*
X7678242Y-8570010D01*
X5590006Y-8570010D02*
G01*
X6634124Y-8570010D01*
X4545888Y-8570010D02*
G01*
X5590006Y-8570010D01*
X3501770Y-8570010D02*
G01*
X4545888Y-8570010D01*
X2457678Y-8570010D02*
G01*
X3501770Y-8570010D01*
X1413560Y-8570010D02*
G01*
X2457678Y-8570010D01*
X369443Y-8570010D02*
G01*
X1413560Y-8570010D01*
X3789845Y-7052337D02*
G01*
X3467666Y-7052337D01*
X3090001Y-7430002D01*
X3090001Y-8570010D01*
D11*
X14336522Y-2742945D02*
G01*
X14500097Y-2899918D01*
X14500001Y-3200001D01*
X14651736Y-3331971D01*
X15699993Y-3345942D01*
D15*
G01*
X15699993Y-3345942D03*
G01*
X15699993Y-3853942D03*
G01*
X7446009Y-399999D03*
G01*
X7954009Y-399999D03*
G01*
X8626017Y-2560015D03*
G01*
X9134017Y-2560015D03*
G01*
X11039703Y-219735D03*
G01*
X10789716Y-219735D03*
G01*
X10539704Y-219735D03*
G01*
X10289717Y-219735D03*
G01*
X10039705Y-219735D03*
G01*
X9789718Y-219735D03*
G01*
X14336598Y-456996D03*
G01*
X14336598Y-2742996D03*
G01*
X14082598Y-456996D03*
G01*
X14082598Y-2742996D03*
G01*
X13828598Y-456996D03*
G01*
X13828598Y-2742996D03*
G01*
X13574598Y-456996D03*
G01*
X13574598Y-2742996D03*
G01*
X13320598Y-456996D03*
G01*
X13066598Y-456996D03*
G01*
X12812598Y-456996D03*
G01*
X12558598Y-456996D03*
G01*
X12558598Y-2742996D03*
G01*
X12812598Y-2742996D03*
G01*
X13066598Y-2742996D03*
G01*
X13320598Y-2742996D03*
G01*
X14336598Y-2996996D03*
G01*
X14082598Y-2996996D03*
G01*
X13828598Y-2996996D03*
G01*
X13574598Y-2996996D03*
G01*
X13320598Y-2996996D03*
G01*
X13066598Y-2996996D03*
G01*
X12812598Y-2996996D03*
G01*
X12558598Y-2996996D03*
G01*
X14336598Y-202996D03*
G01*
X14082598Y-202996D03*
G01*
X13828598Y-202996D03*
G01*
X13574598Y-202996D03*
G01*
X13320598Y-202996D03*
G01*
X13066598Y-202996D03*
G01*
X12812598Y-202996D03*
G01*
X12558598Y-202996D03*
G01*
X12304598Y-2996996D03*
G01*
X12304598Y-2742996D03*
G01*
X12304598Y-202996D03*
G01*
X12304598Y-456996D03*
G01*
X12050598Y-2996996D03*
G01*
X12050598Y-2742996D03*
G01*
X12050598Y-202996D03*
G01*
X12050598Y-456996D03*
G36*
X15888408Y-1208211D02*
G01*
X15888408Y-1411411D01*
X16091608Y-1411411D01*
X16091608Y-1208211D01*
G37*
D16*
G01*
X15990011Y-1810181D03*
G36*
X15961799Y-7978404D02*
G01*
X15758599Y-7978404D01*
X15758599Y-8181604D01*
X15961799Y-8181604D01*
G37*
G01*
X15359811Y-8079994D03*
G36*
X14961801Y-7978404D02*
G01*
X14758601Y-7978404D01*
X14758601Y-8181604D01*
X14961801Y-8181604D01*
G37*
G01*
X14359813Y-8079994D03*
G36*
X10711799Y-7978404D02*
G01*
X10508599Y-7978404D01*
X10508599Y-8181604D01*
X10711799Y-8181604D01*
G37*
G01*
X10109809Y-8079994D03*
G36*
X9711799Y-7978404D02*
G01*
X9508599Y-7978404D01*
X9508599Y-8181604D01*
X9711799Y-8181604D01*
G37*
G01*
X9109811Y-8079994D03*
G36*
X7917299Y-7978404D02*
G01*
X7714099Y-7978404D01*
X7714099Y-8181604D01*
X7917299Y-8181604D01*
G37*
G01*
X7315327Y-8079994D03*
G36*
X6917298Y-7978404D02*
G01*
X6714098Y-7978404D01*
X6714098Y-8181604D01*
X6917298Y-8181604D01*
G37*
G01*
X6315329Y-8079994D03*
G36*
X5917298Y-7978404D02*
G01*
X5714098Y-7978404D01*
X5714098Y-8181604D01*
X5917298Y-8181604D01*
G37*
G01*
X5315305Y-8079994D03*
G36*
X3917299Y-7978404D02*
G01*
X3714099Y-7978404D01*
X3714099Y-8181604D01*
X3917299Y-8181604D01*
G37*
G01*
X3315309Y-8079994D03*
G36*
X2917299Y-7978404D02*
G01*
X2714099Y-7978404D01*
X2714099Y-8181604D01*
X2917299Y-8181604D01*
G37*
G01*
X2315311Y-8079994D03*
G36*
X1917298Y-7978404D02*
G01*
X1714098Y-7978404D01*
X1714098Y-8181604D01*
X1917298Y-8181604D01*
G37*
G01*
X1315313Y-8079994D03*
G36*
X13961800Y-7978404D02*
G01*
X13758600Y-7978404D01*
X13758600Y-8181604D01*
X13961800Y-8181604D01*
G37*
G01*
X13359815Y-8079994D03*
G36*
X12961800Y-7978404D02*
G01*
X12758600Y-7978404D01*
X12758600Y-8181604D01*
X12961800Y-8181604D01*
G37*
G01*
X12359817Y-8079994D03*
G36*
X4917300Y-7978404D02*
G01*
X4714100Y-7978404D01*
X4714100Y-8181604D01*
X4917300Y-8181604D01*
G37*
G01*
X4315307Y-8079994D03*
G36*
X917298Y-7978404D02*
G01*
X714098Y-7978404D01*
X714098Y-8181604D01*
X917298Y-8181604D01*
G37*
G01*
X315315Y-8079994D03*
G36*
X2451790Y-798400D02*
G01*
X2248590Y-798400D01*
X2248590Y-1001600D01*
X2451790Y-1001600D01*
G37*
G01*
X1849805Y-899998D03*
D17*
G01*
X3700424Y-4067327D03*
G01*
X2830423Y-4067327D03*
G01*
X3701618Y-3699535D03*
G01*
X2831617Y-3699535D03*
D18*
G01*
X15788817Y-7042327D03*
G01*
X15788817Y-6542328D03*
G01*
X15788817Y-6042329D03*
D13*
G01*
X15788817Y-4917338D03*
G01*
X15788817Y-4542332D03*
D18*
G01*
X15230017Y-7042327D03*
G01*
X15230017Y-6542328D03*
G01*
X15230017Y-6042329D03*
D13*
G01*
X15230017Y-4917338D03*
G01*
X15230017Y-4542332D03*
D18*
G01*
X14671217Y-7042327D03*
G01*
X14671217Y-6542328D03*
G01*
X14671217Y-6042329D03*
D13*
G01*
X14671217Y-4917338D03*
G01*
X14671217Y-4542332D03*
D18*
G01*
X14112417Y-7042327D03*
G01*
X14112417Y-6542328D03*
G01*
X14112417Y-6042329D03*
D13*
G01*
X14112417Y-4917338D03*
G01*
X14112417Y-4542332D03*
D17*
G01*
X7506004Y-2359990D03*
G01*
X7760004Y-2359990D03*
G01*
X8014004Y-2359990D03*
D19*
G01*
X10880775Y-4512335D03*
G01*
X10880775Y-6036335D03*
G01*
X10880775Y-6544335D03*
G01*
X10880775Y-7052335D03*
G01*
X10130764Y-7052335D03*
G01*
X10130764Y-6544335D03*
G01*
X10130764Y-6036335D03*
G01*
X10130764Y-4512335D03*
G01*
X9530003Y-4512335D03*
G01*
X9530003Y-6036335D03*
G01*
X9530003Y-6544335D03*
G01*
X9530003Y-7052335D03*
G01*
X8779992Y-7052335D03*
G01*
X8779992Y-6544335D03*
G01*
X8779992Y-6036335D03*
G01*
X8779992Y-4512335D03*
G01*
X7842427Y-4512335D03*
G01*
X7842427Y-6036335D03*
G01*
X7842427Y-6544335D03*
G01*
X7842427Y-7052335D03*
G01*
X7092416Y-7052335D03*
G01*
X7092416Y-6544335D03*
G01*
X7092416Y-6036335D03*
G01*
X7092416Y-4512335D03*
G01*
X6491655Y-4512335D03*
G01*
X6491655Y-6036335D03*
G01*
X6491655Y-6544335D03*
G01*
X6491655Y-7052335D03*
G01*
X5741644Y-7052335D03*
G01*
X5741644Y-6544335D03*
G01*
X5741644Y-6036335D03*
G01*
X5741644Y-4512335D03*
G01*
X5140883Y-4512335D03*
G01*
X5140883Y-6036335D03*
G01*
X5140883Y-6544335D03*
G01*
X5140883Y-7052335D03*
G01*
X4390847Y-7052335D03*
G01*
X4390847Y-6544335D03*
G01*
X4390847Y-6036335D03*
G01*
X4390847Y-4512335D03*
G01*
X3789857Y-4512335D03*
G01*
X3789857Y-6036335D03*
G01*
X3789857Y-6544335D03*
G01*
X3789857Y-7052335D03*
G01*
X3039846Y-7052335D03*
G01*
X3039846Y-6544335D03*
G01*
X3039846Y-6036335D03*
G01*
X3039846Y-4512335D03*
G01*
X2439085Y-4512335D03*
G01*
X2439085Y-6036335D03*
G01*
X2439085Y-6544335D03*
G01*
X2439085Y-7052335D03*
G01*
X1689074Y-7052335D03*
G01*
X1689074Y-6544335D03*
G01*
X1689074Y-6036335D03*
G01*
X1689074Y-4512335D03*
G01*
X1088313Y-4512335D03*
G01*
X1088313Y-6036335D03*
G01*
X1088313Y-6544335D03*
G01*
X1088313Y-7052335D03*
G01*
X338302Y-7052335D03*
G01*
X338302Y-6544335D03*
G01*
X338302Y-6036335D03*
G01*
X338302Y-4512335D03*
G01*
X13591717Y-4512335D03*
G01*
X13591717Y-6036335D03*
G01*
X13591717Y-6544335D03*
G01*
X13591717Y-7052335D03*
G01*
X12841706Y-7052335D03*
G01*
X12841706Y-6544335D03*
G01*
X12841706Y-6036335D03*
G01*
X12841706Y-4512335D03*
G01*
X12220117Y-4512335D03*
G01*
X12220117Y-6036335D03*
G01*
X12220117Y-6544335D03*
G01*
X12220117Y-7052335D03*
G01*
X11470106Y-7052335D03*
G01*
X11470106Y-6544335D03*
G01*
X11470106Y-6036335D03*
G01*
X11470106Y-4512335D03*
G01*
X3800017Y-753135D03*
G01*
X3800017Y-2277135D03*
G01*
X3800017Y-2785135D03*
G01*
X3800017Y-3293135D03*
G01*
X3050006Y-3293135D03*
G01*
X3050006Y-2785135D03*
G01*
X3050006Y-2277135D03*
G01*
X3050006Y-753135D03*
G01*
X1068298Y-1293495D03*
G01*
X1068298Y-2817495D03*
G01*
X1068298Y-3325495D03*
G01*
X1068298Y-3833495D03*
G01*
X318287Y-3833495D03*
G01*
X318287Y-3325495D03*
G01*
X318287Y-2817495D03*
G01*
X318287Y-1293495D03*
G36*
X11766001Y-3914998D02*
G01*
X11595999Y-3914998D01*
X11595999Y-4085000D01*
X11766001Y-4085000D01*
G37*
D20*
G01*
X11427002Y-3999992D03*
G01*
X11173002Y-3999992D03*
G01*
X10919002Y-3999992D03*
G36*
X9091604Y-10901796D02*
G01*
X9091604Y-10698596D01*
X8888404Y-10698596D01*
X8888404Y-10901796D01*
G37*
D16*
G01*
X8989999Y-10299827D03*
D18*
G01*
X9765436Y-10223017D03*
G01*
X10265435Y-10223017D03*
G01*
X10765434Y-10223017D03*
D13*
G01*
X11890425Y-10223017D03*
G01*
X12265431Y-10223017D03*
D18*
G01*
X9765411Y-10773003D03*
G01*
X10265409Y-10773003D03*
G01*
X10765409Y-10773003D03*
D13*
G01*
X11890400Y-10773003D03*
G01*
X12265406Y-10773003D03*
D15*
G01*
X12254991Y-855014D03*
G01*
X13285012Y-855014D03*
G01*
X13515009Y-855014D03*
G01*
X14545030Y-855014D03*
D21*
G01*
X6810019Y-1442186D03*
G01*
X6810019Y-1912188D03*
G01*
X6810019Y-2382189D03*
D22*
G01*
X14686000Y-11011001D03*
G01*
X14432000Y-11011001D03*
G01*
X14178000Y-11011001D03*
G01*
X13924000Y-11011001D03*
G01*
X13670000Y-11011001D03*
G01*
X13416000Y-11011001D03*
G01*
X13162000Y-11011001D03*
G01*
X12908000Y-11011001D03*
G01*
X12654000Y-11011001D03*
G01*
X12654000Y-10249001D03*
G01*
X12908000Y-10249001D03*
G01*
X13162000Y-10249001D03*
G01*
X13416000Y-10249001D03*
G01*
X13670000Y-10249001D03*
G01*
X13924000Y-10249001D03*
G01*
X14178000Y-10249001D03*
G01*
X14432000Y-10249001D03*
D23*
G01*
X14686000Y-10249001D03*
D21*
G01*
X2047341Y-1447190D03*
G01*
X2047341Y-1917192D03*
G01*
X2047341Y-2387193D03*
G01*
X2522347Y-1917192D03*
G01*
X2522347Y-2387193D03*
G01*
X2522347Y-1447190D03*
G01*
X4331157Y-1447190D03*
G01*
X4331157Y-1917192D03*
G01*
X4331157Y-2387193D03*
G01*
X4806162Y-1917192D03*
G01*
X4806162Y-2387193D03*
G01*
X4806162Y-1447190D03*
G36*
X11735000Y-1359999D02*
G01*
X12185002Y-1359999D01*
X12185002Y-1539999D01*
X11735000Y-1539999D01*
G37*
G36*
X11735000Y-1613999D02*
G01*
X12185002Y-1613999D01*
X12185002Y-1793999D01*
X11735000Y-1793999D01*
G37*
G36*
X11735000Y-1867999D02*
G01*
X12185002Y-1867999D01*
X12185002Y-2047999D01*
X11735000Y-2047999D01*
G37*
G36*
X11735000Y-2121999D02*
G01*
X12185002Y-2121999D01*
X12185002Y-2301999D01*
X11735000Y-2301999D01*
G37*
G36*
X15641007Y-1144000D02*
G01*
X16341006Y-1144000D01*
X16341006Y-1464000D01*
X15641007Y-1464000D01*
G37*
G36*
X15641007Y-1652000D02*
G01*
X16341006Y-1652000D01*
X16341006Y-1972000D01*
X15641007Y-1972000D01*
G37*
G36*
X15641007Y-2160000D02*
G01*
X16341006Y-2160000D01*
X16341006Y-2480000D01*
X15641007Y-2480000D01*
G37*
D22*
G01*
X9056014Y-3980992D03*
G01*
X8802014Y-3980992D03*
G01*
X8548014Y-3980992D03*
G01*
X8294014Y-3980992D03*
G01*
X8040014Y-3980992D03*
G01*
X7786014Y-3980992D03*
G01*
X7532014Y-3980992D03*
G01*
X7278014Y-3980992D03*
G01*
X7024014Y-3980992D03*
G01*
X7024014Y-3218992D03*
G01*
X7278014Y-3218992D03*
G01*
X7532014Y-3218992D03*
G01*
X7786014Y-3218992D03*
G01*
X8040014Y-3218992D03*
G01*
X8294014Y-3218992D03*
G01*
X8548014Y-3218992D03*
G01*
X8802014Y-3218992D03*
D23*
G01*
X9056014Y-3218992D03*
D22*
G01*
X14150593Y-4118610D03*
G01*
X13896593Y-4118610D03*
G01*
X13642593Y-4118610D03*
G01*
X13388593Y-4118610D03*
G01*
X13134593Y-4118610D03*
G01*
X12880593Y-4118610D03*
G01*
X12626593Y-4118610D03*
G01*
X12372593Y-4118610D03*
G01*
X12118593Y-4118610D03*
G01*
X12118593Y-3356610D03*
G01*
X12372593Y-3356610D03*
G01*
X12626593Y-3356610D03*
G01*
X12880593Y-3356610D03*
G01*
X13134593Y-3356610D03*
G01*
X13388593Y-3356610D03*
G01*
X13642593Y-3356610D03*
G01*
X13896593Y-3356610D03*
D23*
G01*
X14150593Y-3356610D03*
D21*
G01*
X16031133Y-8570010D03*
G01*
X16031133Y-9040012D03*
G01*
X16031133Y-9510013D03*
G01*
X14987016Y-8570010D03*
G01*
X14987016Y-9040012D03*
G01*
X14987016Y-9510013D03*
G01*
X13942898Y-8570010D03*
G01*
X13942898Y-9040012D03*
G01*
X13942898Y-9510013D03*
G01*
X12898805Y-8570010D03*
G01*
X12898805Y-9040012D03*
G01*
X12898805Y-9510013D03*
G01*
X11854688Y-8570010D03*
G01*
X11854688Y-9040012D03*
G01*
X11854688Y-9510013D03*
G01*
X10810570Y-8570010D03*
G01*
X10810570Y-9040012D03*
G01*
X10810570Y-9510013D03*
G01*
X9766452Y-8570010D03*
G01*
X9766452Y-9040012D03*
G01*
X9766452Y-9510013D03*
G01*
X8722334Y-8570010D03*
G01*
X8722334Y-9040012D03*
G01*
X8722334Y-9510013D03*
G01*
X7678242Y-8570010D03*
G01*
X7678242Y-9040012D03*
G01*
X7678242Y-9510013D03*
G01*
X6634124Y-8570010D03*
G01*
X6634124Y-9040012D03*
G01*
X6634124Y-9510013D03*
G01*
X5590006Y-8570010D03*
G01*
X5590006Y-9040012D03*
G01*
X5590006Y-9510013D03*
G01*
X4545888Y-8570010D03*
G01*
X4545888Y-9040012D03*
G01*
X4545888Y-9510013D03*
G01*
X3501770Y-8570010D03*
G01*
X3501770Y-9040012D03*
G01*
X3501770Y-9510013D03*
G01*
X2457678Y-8570010D03*
G01*
X2457678Y-9040012D03*
G01*
X2457678Y-9510013D03*
G01*
X1413560Y-8570010D03*
G01*
X1413560Y-9040012D03*
G01*
X1413560Y-9510013D03*
G01*
X369443Y-8570010D03*
G01*
X369443Y-9040012D03*
G01*
X369443Y-9510013D03*
D15*
G01*
X10684992Y-499998D03*
G01*
X11715013Y-499998D03*
G01*
X11719128Y-753135D03*
G01*
X10689107Y-753135D03*
G01*
X1515414Y-1332356D03*
G01*
X1515414Y-302336D03*
G01*
X16245027Y-9860000D03*
G01*
X15215006Y-9860000D03*
G01*
X11465001Y-9860000D03*
G01*
X12495022Y-9860000D03*
G01*
X10214990Y-9860000D03*
G01*
X11245011Y-9860000D03*
G01*
X9995027Y-9860000D03*
G01*
X8965006Y-9860000D03*
G01*
X8745016Y-9860000D03*
G01*
X7714995Y-9860000D03*
G01*
X7835011Y-10189997D03*
G01*
X6804990Y-10189997D03*
G01*
X7495006Y-9860000D03*
G01*
X6464985Y-9860000D03*
G01*
X6245021Y-9860000D03*
G01*
X5215000Y-9860000D03*
G01*
X3964990Y-9860000D03*
G01*
X4995011Y-9860000D03*
G01*
X2714980Y-9860000D03*
G01*
X3745001Y-9860000D03*
G01*
X2495016Y-9860000D03*
G01*
X1464995Y-9860000D03*
G01*
X1355013Y-10130002D03*
G01*
X324993Y-10130002D03*
G01*
X214985Y-9860000D03*
G01*
X1245006Y-9860000D03*
D24*
G01*
X2174417Y-448335D03*
G01*
X2428417Y-448335D03*
G01*
X15912998Y-7450023D03*
G01*
X16166998Y-7450023D03*
G01*
X11737035Y-7449997D03*
G01*
X11991035Y-7449997D03*
G01*
X10693018Y-7449997D03*
G01*
X10947018Y-7449997D03*
G01*
X9649028Y-7449997D03*
G01*
X9903028Y-7449997D03*
G01*
X8605037Y-7449997D03*
G01*
X8859037Y-7449997D03*
G01*
X7561021Y-7449997D03*
G01*
X7815021Y-7449997D03*
G01*
X6517030Y-7449997D03*
G01*
X6771030Y-7449997D03*
G01*
X5473014Y-7449997D03*
G01*
X5727014Y-7449997D03*
G01*
X4429023Y-7449997D03*
G01*
X4683023Y-7449997D03*
G01*
X3385007Y-7449997D03*
G01*
X3639007Y-7449997D03*
G01*
X2340990Y-7449997D03*
G01*
X2594990Y-7449997D03*
G01*
X1297000Y-7450023D03*
G01*
X1551000Y-7450023D03*
G01*
X252984Y-7450023D03*
G01*
X506984Y-7450023D03*
G01*
X12781025Y-7450023D03*
G01*
X13035025Y-7450023D03*
D15*
G01*
X15110002Y-11065027D03*
G01*
X15110002Y-10035006D03*
G01*
X13964996Y-9860000D03*
G01*
X14995016Y-9860000D03*
G01*
X12714986Y-9860000D03*
G01*
X13745006Y-9860000D03*
D24*
G01*
X14869007Y-7449997D03*
G01*
X15123007Y-7449997D03*
G01*
X13824991Y-7449997D03*
G01*
X14078991Y-7449997D03*
D23*
G01*
X4841417Y-448335D03*
D22*
G01*
X4587417Y-448335D03*
G01*
X4333417Y-448335D03*
D23*
G01*
X8510015Y-713994D03*
D22*
G01*
X8510015Y-459994D03*
G01*
X8510015Y-205994D03*
D21*
G01*
X11310010Y-1442186D03*
G01*
X11310010Y-1912188D03*
G01*
X11310010Y-2382189D03*
G01*
X8030006Y-1902205D03*
G01*
X8500008Y-1902205D03*
G01*
X8970009Y-1902205D03*
D15*
G01*
X3924985Y-989990D03*
G01*
X4955006Y-989990D03*
G01*
X4634991Y-140004D03*
G01*
X5665012Y-140004D03*
G01*
X8930004Y-1145006D03*
G01*
X8930004Y-114985D03*
G01*
X9189999Y-1145006D03*
G01*
X9189999Y-114985D03*
G01*
X3553028Y-245135D03*
G01*
X2523007Y-245135D03*
G01*
X10800003Y-984986D03*
G01*
X10800003Y-2015007D03*
G01*
X10800003Y-3215004D03*
G01*
X10800003Y-2184984D03*
G01*
X9265005Y-1369999D03*
G01*
X8234984Y-1369999D03*
G01*
X7314996Y-1150010D03*
G01*
X8345017Y-1150010D03*
D24*
G01*
X3304082Y-461035D03*
G01*
X3558082Y-461035D03*
D25*
G01*
X6460997Y-10208996D03*
G01*
X6206997Y-10208996D03*
G01*
X5952997Y-10208996D03*
G01*
X5698997Y-10208996D03*
G01*
X5444997Y-10208996D03*
G01*
X5190997Y-10208996D03*
G01*
X4936997Y-10208996D03*
G01*
X4682997Y-10208996D03*
G01*
X4428997Y-10208996D03*
G01*
X4174997Y-10208996D03*
G01*
X3920997Y-10208996D03*
G01*
X3666997Y-10208996D03*
G01*
X3412997Y-10208996D03*
G01*
X3158997Y-10208996D03*
G01*
X3158997Y-10970996D03*
G01*
X3412997Y-10970996D03*
G01*
X3666997Y-10970996D03*
G01*
X3920997Y-10970996D03*
G01*
X4174997Y-10970996D03*
G01*
X4428997Y-10970996D03*
G01*
X4682997Y-10970996D03*
G01*
X4936997Y-10970996D03*
G01*
X5190997Y-10970996D03*
G01*
X5444997Y-10970996D03*
G01*
X5698997Y-10970996D03*
G01*
X5952997Y-10970996D03*
G01*
X6206997Y-10970996D03*
G01*
X6460997Y-10970996D03*
G01*
X10281005Y-4050995D03*
G01*
X10281005Y-3796995D03*
G01*
X10281005Y-3542995D03*
G01*
X10281005Y-3288995D03*
G01*
X10281005Y-3034995D03*
G01*
X10281005Y-2780995D03*
G01*
X10281005Y-2526995D03*
G01*
X10281005Y-2272995D03*
G01*
X10281005Y-2018995D03*
G01*
X10281005Y-1764995D03*
G01*
X10281005Y-1510995D03*
G01*
X10281005Y-1256995D03*
G01*
X10281005Y-1002995D03*
G01*
X10281005Y-748995D03*
G01*
X9519005Y-748995D03*
G01*
X9519005Y-1002995D03*
G01*
X9519005Y-1256995D03*
G01*
X9519005Y-1510995D03*
G01*
X9519005Y-1764995D03*
G01*
X9519005Y-2018995D03*
G01*
X9519005Y-2272995D03*
G01*
X9519005Y-2526995D03*
G01*
X9519005Y-2780995D03*
G01*
X9519005Y-3034995D03*
G01*
X9519005Y-3288995D03*
G01*
X9519005Y-3542995D03*
G01*
X9519005Y-3796995D03*
G01*
X9519005Y-4050995D03*
D17*
G01*
X7828203Y-5579135D03*
D26*
G01*
X3099993Y-5599988D03*
G01*
X5900013Y-5460009D03*
G01*
X3744340Y-10528554D03*
G01*
X3277387Y-5612714D03*
G01*
X11620703Y-1038301D03*
G01*
X11335562Y-3785107D03*
D27*
G01*
X857707Y-3536061D03*
D26*
G01*
X16050082Y-4991455D03*
G01*
X12052934Y-5032019D03*
G01*
X8583701Y-4186199D03*
G01*
X7969910Y-5069027D03*
G01*
X11422176Y-5069027D03*
G01*
X8298891Y-7449997D03*
G01*
X7657439Y-4474540D03*
G01*
X7060133Y-4918049D03*
G01*
X8159572Y-7327925D03*
G01*
X3149269Y-3934307D03*
G01*
X9329013Y-6468465D03*
G01*
X7546644Y-4501921D03*
G01*
X3782695Y-5295544D03*
G01*
X3508044Y-7310170D03*
G01*
X3353104Y-4230268D03*
G01*
X2148103Y-6114364D03*
G01*
X3257041Y-4288866D03*
G01*
X3190747Y-6967016D03*
G01*
X10400588Y-2598216D03*
G01*
X7317384Y-9315373D03*
G01*
X10284409Y-7669352D03*
D28*
G01*
X8770874Y-784225D03*
D26*
G01*
X13446099Y-8336432D03*
G01*
X3452088Y-7626985D03*
G01*
X6940118Y-3375405D03*
G01*
X14157274Y-8723096D03*
G01*
X13637945Y-8723096D03*
G01*
X13350875Y-4247032D03*
G01*
X13178256Y-3992067D03*
G01*
X10489793Y-1706041D03*
G01*
X9970008Y-5650001D03*
G01*
X8240013Y-5650001D03*
G01*
X7954238Y-9663125D03*
G01*
X3621709Y-9980549D03*
G01*
X4668900Y-4169460D03*
G01*
X4930470Y-7449997D03*
G01*
X12551130Y-2494406D03*
G01*
X10562158Y-2259609D03*
G01*
X10540593Y-2827324D03*
G01*
X8078444Y-2759506D03*
G01*
X7408341Y-2509240D03*
G01*
X12752628Y-1822094D03*
G01*
X10379329Y-1931847D03*
G01*
X10098735Y-1844014D03*
G01*
X7294219Y-1339595D03*
D28*
G01*
X11874754Y-4130497D03*
D26*
G01*
X13501370Y-2576474D03*
D27*
G01*
X11170793Y-6937400D03*
D26*
G01*
X14434032Y-6700240D03*
G01*
X14158722Y-6735216D03*
G01*
X12926237Y-3847134D03*
G01*
X11419611Y-3822141D03*
G01*
X11151387Y-3799382D03*
G01*
X3481933Y-8209661D03*
G01*
X4950104Y-7019848D03*
G01*
X7239584Y-601370D03*
G01*
X9977704Y-462254D03*
G01*
X13448588Y-3722801D03*
G01*
X5826125Y-2945206D03*
G01*
X10836732Y-3590721D03*
G01*
X10982096Y-3630676D03*
G01*
X10984941Y-2869996D03*
G01*
X10881233Y-3390315D03*
G01*
X10542879Y-3390315D03*
G01*
X10375061Y-3176371D03*
G01*
X5840602Y-2862834D03*
D29*
X4420488Y-3639992D02*
G01*
X4420488Y-3759992D01*
X6579488Y-3639992D02*
G01*
X6579488Y-3759992D01*
D15*
X6312001Y-403199D02*
G01*
X6312001Y-504799D01*
X6058001Y-403199D02*
G01*
X6058001Y-504799D01*
X5804001Y-403199D02*
G01*
X5804001Y-504799D01*
X5550001Y-403199D02*
G01*
X5550001Y-504799D01*
X5296001Y-403199D02*
G01*
X5296001Y-504799D01*
X5042001Y-403199D02*
G01*
X5042001Y-504799D01*
X5042001Y-2435199D02*
G01*
X5042001Y-2536799D01*
X5296001Y-2435199D02*
G01*
X5296001Y-2536799D01*
X5550001Y-2435199D02*
G01*
X5550001Y-2536799D01*
X5804001Y-2435199D02*
G01*
X5804001Y-2536799D01*
X6058001Y-2435199D02*
G01*
X6058001Y-2536799D01*
X6312001Y-2435199D02*
G01*
X6312001Y-2536799D01*
M02*
